<?xml version="1.0" encoding="utf-8"?>
<!-- Generator: Adobe Illustrator 26.1.0, SVG Export Plug-In . SVG Version: 6.00 Build 0)  -->
<svg version="1.1" id="Layer_1" xmlns="http://www.w3.org/2000/svg" xmlns:xlink="http://www.w3.org/1999/xlink" x="0px" y="0px"
	 viewBox="0 0 800 800" style="enable-background:new 0 0 800 800;" xml:space="preserve">
<style type="text/css">
	.st0{fill:#100F0F;}
</style>
<path id="XMLID_24_" class="st0" d="M763.6,0H36.4C16.3,0,0,16.3,0,36.4v727.3c0,20,16.3,36.3,36.4,36.3h727.3
	c20.1,0,36.4-16.3,36.4-36.4V36.4C800,16.3,783.7,0,763.6,0z M619.7,328.7l-194,194c-6.8,6.8-16.1,10.7-25.7,10.7
	s-18.9-3.8-25.7-10.7l-194-194c-14.2-14.2-14.2-37.2,0-51.4c14.2-14.2,37.2-14.2,51.4,0L400,445.5l168.2-168.2
	c14.2-14.2,37.2-14.2,51.4,0C633.9,291.5,633.9,314.5,619.7,328.7z"/>
</svg>
